<svg width="1600" height="900" viewBox="0 0 1600 900" xmlns="http://www.w3.org/2000/svg" role="img" aria-labelledby="title desc">
  <title id="title">HexaWord Daily Challenge Splash Background</title>
  <desc id="desc">Gradient background with subtle hexagon grid and focal highlight for the HexaWord daily challenge splash screen.</desc>
  <defs>
    <linearGradient id="bgGradient" x1="0" y1="0" x2="1" y2="1">
      <stop offset="0%" stop-color="#1E1A47" />
      <stop offset="50%" stop-color="#2B3A8A" />
      <stop offset="100%" stop-color="#1A5C73" />
    </linearGradient>
    <radialGradient id="spotlight" cx="0.5" cy="0.3" r="0.6">
      <stop offset="0%" stop-color="rgba(255, 255, 255, 0.35)" />
      <stop offset="60%" stop-color="rgba(255, 255, 255, 0.05)" />
      <stop offset="100%" stop-color="rgba(255, 255, 255, 0)" />
    </radialGradient>
    <pattern id="hexPattern" width="60" height="52" patternUnits="userSpaceOnUse" patternTransform="scale(1.2)">
      <path d="M30 0l26 15v30l-26 15-26-15V15z" fill="none" stroke="rgba(255,255,255,0.08)" stroke-width="2" />
    </pattern>
    <filter id="softGlow" x="-20%" y="-20%" width="140%" height="140%">
      <feGaussianBlur stdDeviation="40" />
    </filter>
  </defs>
  <rect width="1600" height="900" fill="url(#bgGradient)" />
  <rect width="1600" height="900" fill="url(#hexPattern)" opacity="0.4" />
  <circle cx="1150" cy="260" r="420" fill="url(#spotlight)" />
  <g opacity="0.35" filter="url(#softGlow)">
    <circle cx="300" cy="780" r="180" fill="#4CE0B3" />
    <circle cx="1340" cy="720" r="220" fill="#FFB347" />
  </g>
  <g opacity="0.65">
    <path d="M900 140l90 52v105l-90 52-90-52V192z" fill="rgba(255,255,255,0.08)" />
    <path d="M1100 360l90 52v105l-90 52-90-52V412z" fill="rgba(255,255,255,0.08)" />
    <path d="M1260 160l90 52v105l-90 52-90-52V212z" fill="rgba(76, 224, 179, 0.15)" />
  </g>
</svg>
