<svg width="512" height="512" viewBox="0 0 512 512" xmlns="http://www.w3.org/2000/svg">
  <defs>
    <!-- Gradient matching the glassmorphic theme -->
    <linearGradient id="iconGradient" x1="0" y1="0" x2="1" y2="1">
      <stop offset="0%" stop-color="#5B9FEE" />
      <stop offset="100%" stop-color="#4CE0B3" />
    </linearGradient>

    <!-- Glass effect gradient -->
    <linearGradient id="glassGradient" x1="0" y1="0" x2="0" y2="1">
      <stop offset="0%" stop-color="rgba(255,255,255,0.2)" />
      <stop offset="50%" stop-color="rgba(255,255,255,0.1)" />
      <stop offset="100%" stop-color="rgba(255,255,255,0.05)" />
    </linearGradient>

    <!-- Inner glow for depth -->
    <radialGradient id="innerGlow" cx="50%" cy="30%">
      <stop offset="0%" stop-color="rgba(255,255,255,0.3)" />
      <stop offset="100%" stop-color="rgba(255,255,255,0)" />
    </radialGradient>

    <!-- Drop shadow filter -->
    <filter id="dropShadow" x="-50%" y="-50%" width="200%" height="200%">
      <feGaussianBlur in="SourceAlpha" stdDeviation="15"/>
      <feOffset dx="0" dy="10" result="offsetblur"/>
      <feFlood flood-color="#141511" flood-opacity="0.5"/>
      <feComposite in2="offsetblur" operator="in"/>
      <feMerge>
        <feMergeNode/>
        <feMergeNode in="SourceGraphic"/>
      </feMerge>
    </filter>

    <!-- Blur for glassmorphism -->
    <filter id="glassBlur" x="-50%" y="-50%" width="200%" height="200%">
      <feGaussianBlur in="SourceGraphic" stdDeviation="2" />
    </filter>
  </defs>

  <!-- Background circle for contrast -->
  <circle cx="256" cy="256" r="200" fill="#141511" opacity="0.3" />

  <!-- Main hexagon shape with gradient -->
  <g filter="url(#dropShadow)">
    <path d="M256 64l160 92v184l-160 92-160-92V156z"
          fill="url(#iconGradient)"
          opacity="0.9" />
  </g>

  <!-- Glass overlay for depth -->
  <path d="M256 64l160 92v92l-160 92-160-92V156z"
        fill="url(#glassGradient)"
        opacity="0.8" />

  <!-- Inner hexagon for glassmorphic card effect -->
  <g opacity="0.75">
    <path d="M256 120l104 60v120l-104 60-104-60V180z"
          fill="rgba(17, 25, 40, 0.75)"
          stroke="rgba(255,255,255,0.125)"
          stroke-width="2" />
  </g>

  <!-- Letter H design -->
  <g fill="rgba(255,255,255,0.9)">
    <!-- Left vertical bar -->
    <rect x="180" y="160" width="32" height="192" rx="4" />
    <!-- Right vertical bar -->
    <rect x="300" y="160" width="32" height="192" rx="4" />
    <!-- Horizontal connector -->
    <rect x="180" y="240" width="152" height="32" rx="4" />
  </g>

  <!-- Inner glow effect -->
  <circle cx="256" cy="200" r="100" fill="url(#innerGlow)" opacity="0.5" />

  <!-- Small hexagon accents -->
  <g opacity="0.2" fill="rgba(255,255,255,0.5)">
    <path d="M150 100l13 7.5v15l-13 7.5-13-7.5v-15z" />
    <path d="M362 382l13 7.5v15l-13 7.5-13-7.5v-15z" />
  </g>
</svg>