<svg width="1600" height="900" viewBox="0 0 1600 900" xmlns="http://www.w3.org/2000/svg" role="img" aria-labelledby="title desc">
  <title id="title">HexaWord Daily Challenge Glassmorphism Splash</title>
  <desc id="desc">Dark glassmorphism splash background with teal and blue radial gradients inspired by the HexaWord brand.</desc>
  <defs>
    <radialGradient id="gradientBlue" cx="0.47" cy="0.33" r="0.55">
      <stop offset="0%" stop-color="hsl(212.37, 72%, 59%)" stop-opacity="0.9" />
      <stop offset="60%" stop-color="hsl(212.37, 72%, 59%)" stop-opacity="0" />
    </radialGradient>
    <radialGradient id="gradientTeal" cx="0.82" cy="0.65" r="0.5">
      <stop offset="0%" stop-color="hsl(166.53, 72%, 60%)" stop-opacity="0.9" />
      <stop offset="55%" stop-color="hsl(166.53, 72%, 60%)" stop-opacity="0" />
    </radialGradient>
    <radialGradient id="cardHighlight" cx="0.7" cy="0" r="1">
      <stop offset="0%" stop-color="rgba(255, 255, 255, 0.65)" />
      <stop offset="40%" stop-color="rgba(255, 255, 255, 0.15)" />
      <stop offset="100%" stop-color="rgba(255, 255, 255, 0)" />
    </radialGradient>
    <linearGradient id="borderSheen" x1="0" y1="0" x2="1" y2="1">
      <stop offset="0%" stop-color="rgba(255, 255, 255, 0.35)" />
      <stop offset="100%" stop-color="rgba(255, 255, 255, 0.05)" />
    </linearGradient>
    <filter id="cardShadow" x="-30%" y="-30%" width="160%" height="160%">
      <feDropShadow dx="0" dy="20" stdDeviation="40" flood-color="rgba(0, 0, 0, 0.55)" />
    </filter>
    <pattern id="hexagonGrid" width="48" height="41.57" patternUnits="userSpaceOnUse" patternTransform="scale(1.1)">
      <path d="M24 0l20.784 12v24L24 48 3.216 36V12z" fill="none" stroke="rgba(255,255,255,0.06)" stroke-width="1.5" />
    </pattern>
    <filter id="glow" x="-50%" y="-50%" width="200%" height="200%">
      <feGaussianBlur stdDeviation="80" result="blur" />
      <feMerge>
        <feMergeNode in="blur" />
        <feMergeNode in="SourceGraphic" />
      </feMerge>
    </filter>
  </defs>
  <rect width="1600" height="900" fill="#141511" />
  <rect width="1600" height="900" fill="url(#hexagonGrid)" opacity="0.35" />
  <rect width="1600" height="900" fill="url(#gradientBlue)" />
  <rect width="1600" height="900" fill="url(#gradientTeal)" />
  <g filter="url(#glow)">
    <circle cx="280" cy="760" r="180" fill="rgba(76, 224, 179, 0.3)" />
    <circle cx="1260" cy="180" r="220" fill="rgba(98, 169, 255, 0.25)" />
  </g>
  <g filter="url(#cardShadow)">
    <rect x="520" y="220" width="560" height="400" rx="28" ry="28" fill="rgba(17, 25, 40, 0.75)" stroke="rgba(255, 255, 255, 0.125)" stroke-width="1.5" />
    <rect x="520" y="220" width="560" height="400" rx="28" ry="28" fill="url(#cardHighlight)" />
    <rect x="520" y="220" width="560" height="400" rx="28" ry="28" fill="none" stroke="url(#borderSheen)" stroke-width="1.5" />
    <path d="M560 280 H1040" stroke="rgba(255,255,255,0.08)" stroke-width="1.5" stroke-linecap="round" />
    <path d="M560 320 H960" stroke="rgba(255,255,255,0.06)" stroke-width="1.5" stroke-linecap="round" />
    <path d="M560 360 H980" stroke="rgba(255,255,255,0.04)" stroke-width="1.5" stroke-linecap="round" />
    <path d="M560 440 H1040" stroke="rgba(255,255,255,0.04)" stroke-width="1.5" stroke-linecap="round" />
  </g>
  <g opacity="0.25">
    <path d="M900 140l90 52v105l-90 52-90-52V192z" fill="rgba(255,255,255,0.15)" />
    <path d="M1080 360l90 52v105l-90 52-90-52V412z" fill="rgba(255,255,255,0.12)" />
    <path d="M1260 520l90 52v105l-90 52-90-52V572z" fill="rgba(255,255,255,0.1)" />
  </g>
</svg>
